<?xml version="1.0" encoding="UTF-8" standalone="no"?>
<!-- Created with Inkscape (http://www.inkscape.org/) -->

<svg
   xmlns:dc="http://purl.org/dc/elements/1.1/"
   xmlns:cc="http://creativecommons.org/ns#"
   xmlns:rdf="http://www.w3.org/1999/02/22-rdf-syntax-ns#"
   xmlns:svg="http://www.w3.org/2000/svg"
   xmlns="http://www.w3.org/2000/svg"
   xmlns:sodipodi="http://sodipodi.sourceforge.net/DTD/sodipodi-0.dtd"
   xmlns:inkscape="http://www.inkscape.org/namespaces/inkscape"
   version="1.1"
   id="svg4518"
   xml:space="preserve"
   width="250"
   height="250"
   viewBox="0 0 250 250"
   sodipodi:docname="logophysum.svg"
   inkscape:export-filename="D:\Pictures\Discord\PHYSUM\logophysum.png"
   inkscape:export-xdpi="200"
   inkscape:export-ydpi="200"
   inkscape:version="0.92.3 (2405546, 2018-03-11)"><metadata
     id="metadata4524"><rdf:RDF><cc:Work
         rdf:about=""><dc:format>image/svg+xml</dc:format><dc:type
           rdf:resource="http://purl.org/dc/dcmitype/StillImage" /><dc:title></dc:title></cc:Work></rdf:RDF></metadata><defs
     id="defs4522" /><sodipodi:namedview
     pagecolor="#ffffff"
     bordercolor="#666666"
     borderopacity="1"
     objecttolerance="10"
     gridtolerance="10"
     guidetolerance="10"
     inkscape:pageopacity="0"
     inkscape:pageshadow="2"
     inkscape:window-width="1920"
     inkscape:window-height="1017"
     id="namedview4520"
     showgrid="false"
     inkscape:zoom="2.8284271"
     inkscape:cx="57.864791"
     inkscape:cy="122.91407"
     inkscape:window-x="1912"
     inkscape:window-y="-8"
     inkscape:window-maximized="1"
     inkscape:current-layer="g5101"
     fit-margin-top="0"
     fit-margin-left="0"
     fit-margin-right="0"
     fit-margin-bottom="0" /><g
     id="g4526"
     inkscape:groupmode="layer"
     inkscape:label="logophysum_final"
     transform="matrix(1.3333333,0,0,1.3333333,-352.49933,-208.97466)"><g
       id="g4528"><g
         id="g5101"
         transform="translate(4.6835038,-8.0699985)"><g
           id="g5152"
           transform="translate(4.6835027,-8.0700002)"><path
             d="m 297.785,316.539 c -11.695,-11.695 1.789,-44.137 30.113,-72.465 28.325,-28.32 60.77,-41.804 72.461,-30.109 11.692,11.695 -1.789,44.133 -30.113,72.457 -28.328,28.328 -60.769,41.812 -72.461,30.117 M 407.137,207.191 c -13.242,-13.238 -49.969,2.024 -82.032,34.09 -32.07,32.067 -47.332,68.797 -34.101,82.035 13.242,13.239 49.969,-2.027 82.039,-34.097 32.066,-32.067 47.328,-68.793 34.094,-82.028"
             style="fill:#000000;fill-opacity:1;fill-rule:nonzero;stroke:none"
             id="path4752"
             inkscape:connector-curvature="0" /><path
             d="m 400.359,316.539 c -11.691,11.695 -44.136,-1.789 -72.461,-30.117 -28.324,-28.324 -41.808,-60.762 -30.113,-72.457 11.692,-11.695 44.133,1.789 72.461,30.109 28.324,28.328 41.805,60.77 30.113,72.465 M 291.008,207.191 c -13.235,13.235 2.023,49.961 34.097,82.028 32.063,32.07 68.79,47.336 82.032,34.097 13.234,-13.238 -2.032,-49.968 -34.094,-82.035 -32.07,-32.066 -68.797,-47.328 -82.035,-34.09"
             style="fill:#000000;fill-opacity:1;fill-rule:nonzero;stroke:none"
             id="path4754"
             inkscape:connector-curvature="0" /><path
             d="m 276.305,261.531 c 2.508,0 4.539,2.035 4.539,4.539 0,2.512 -2.031,4.547 -4.539,4.547 -2.508,0 -4.543,-2.035 -4.543,-4.547 0,-2.504 2.035,-4.539 4.543,-4.539"
             style="fill:#000000;fill-opacity:1;fill-rule:nonzero;stroke:none"
             id="path4756"
             inkscape:connector-curvature="0" /><path
             d="m 420.324,261.531 c -2.508,0 -4.547,2.035 -4.547,4.539 0,2.512 2.039,4.547 4.547,4.547 2.504,0 4.539,-2.035 4.539,-4.547 0,-2.504 -2.035,-4.539 -4.539,-4.539"
             style="fill:#000000;fill-opacity:1;fill-rule:nonzero;stroke:none"
             id="path4758"
             inkscape:connector-curvature="0" /><path
             d="m 376.555,236.199 c -1.696,-0.004 -3.071,1.371 -3.071,3.071 0,1.699 1.375,3.066 3.071,3.066 1.699,0 3.074,-1.367 3.07,-3.066 0,-1.7 -1.371,-3.075 -3.07,-3.071"
             style="fill:#000000;fill-opacity:1;fill-rule:nonzero;stroke:none"
             id="path4760"
             inkscape:connector-curvature="0" /><path
             d="m 353.676,196.918 c 0,2.512 -2.031,4.543 -4.539,4.543 -2.512,0 -4.551,-2.031 -4.551,-4.543 0,-2.512 2.035,-4.543 4.551,-4.543 2.508,0 4.539,2.031 4.539,4.543"
             style="fill:#000000;fill-opacity:1;fill-rule:nonzero;stroke:none"
             id="path4762"
             inkscape:connector-curvature="0" /><path
             d="m 324.59,239.473 c 0,-1.692 -1.375,-3.071 -3.078,-3.071 -1.688,0 -3.067,1.379 -3.067,3.071 0,1.699 1.368,3.07 3.067,3.07 1.703,0 3.078,-1.371 3.078,-3.07"
             style="fill:#000000;fill-opacity:1;fill-rule:nonzero;stroke:none"
             id="path4764"
             inkscape:connector-curvature="0" /><path
             d="m 305.695,216.211 c 1.778,1.773 1.778,4.648 0,6.426 -1.765,1.769 -4.644,1.769 -6.422,0 -1.777,-1.778 -1.769,-4.653 0,-6.426 1.778,-1.773 4.657,-1.773 6.426,0"
             style="fill:#000000;fill-opacity:1;fill-rule:nonzero;stroke:none"
             id="path4766"
             inkscape:connector-curvature="0" /><path
             d="m 399,222.625 c -1.777,1.77 -4.656,1.777 -6.426,0 -1.781,-1.773 -1.773,-4.656 0,-6.426 1.77,-1.777 4.649,-1.769 6.426,0 1.773,1.778 1.773,4.649 0,6.426"
             style="fill:#000000;fill-opacity:1;fill-rule:nonzero;stroke:none"
             id="path4768"
             inkscape:connector-curvature="0" /><path
             d="m 290.305,283.527 c 1.695,0 3.074,-1.375 3.074,-3.066 0,-1.703 -1.379,-3.078 -3.074,-3.078 -1.696,0.008 -3.071,1.375 -3.071,3.078 0,1.691 1.375,3.066 3.071,3.066"
             style="fill:#000000;fill-opacity:1;fill-rule:nonzero;stroke:none"
             id="path4770"
             inkscape:connector-curvature="0" /><path
             d="m 290.305,252.961 c 1.695,0 3.074,-1.375 3.074,-3.07 0,-1.703 -1.379,-3.071 -3.074,-3.071 -1.696,0 -3.071,1.368 -3.071,3.071 0,1.695 1.375,3.07 3.071,3.07"
             style="fill:#000000;fill-opacity:1;fill-rule:nonzero;stroke:none"
             id="path4772"
             inkscape:connector-curvature="0" /><path
             d="m 408.164,283.527 c 1.688,0 3.066,-1.375 3.066,-3.066 0,-1.703 -1.378,-3.078 -3.066,-3.078 -1.703,0.008 -3.078,1.375 -3.078,3.078 0,1.691 1.379,3.066 3.078,3.066"
             style="fill:#000000;fill-opacity:1;fill-rule:nonzero;stroke:none"
             id="path4774"
             inkscape:connector-curvature="0" /><path
             d="m 408.164,252.961 c 1.688,0 3.066,-1.375 3.066,-3.07 0,-1.703 -1.378,-3.071 -3.066,-3.071 -1.703,0 -3.078,1.368 -3.078,3.071 0,1.695 1.379,3.07 3.078,3.07"
             style="fill:#000000;fill-opacity:1;fill-rule:nonzero;stroke:none"
             id="path4776"
             inkscape:connector-curvature="0" /><path
             d="m 321.723,295.949 c 1.695,0 3.066,-1.371 3.066,-3.074 0,-1.691 -1.371,-3.066 -3.066,-3.066 -1.696,0 -3.078,1.375 -3.071,3.066 0,1.703 1.375,3.074 3.071,3.074"
             style="fill:#000000;fill-opacity:1;fill-rule:nonzero;stroke:none"
             id="path4778"
             inkscape:connector-curvature="0" /><path
             d="m 344.605,335.367 c 0,-2.508 2.032,-4.543 4.54,-4.543 2.507,0 4.543,2.035 4.543,4.543 0,2.508 -2.036,4.539 -4.543,4.539 -2.508,0 -4.54,-2.031 -4.54,-4.539"
             style="fill:#000000;fill-opacity:1;fill-rule:nonzero;stroke:none"
             id="path4780"
             inkscape:connector-curvature="0" /><path
             d="m 332.055,323.375 c 0,-1.699 1.371,-3.07 3.066,-3.07 1.707,0 3.074,1.371 3.074,3.07 0,1.691 -1.367,3.074 -3.066,3.074 -1.703,0 -3.074,-1.383 -3.074,-3.074"
             style="fill:#000000;fill-opacity:1;fill-rule:nonzero;stroke:none"
             id="path4782"
             inkscape:connector-curvature="0" /><path
             d="m 360.082,323.375 c 0,-1.699 1.375,-3.07 3.07,-3.07 1.696,0 3.075,1.371 3.075,3.07 0,1.691 -1.379,3.074 -3.067,3.074 -1.703,0 -3.078,-1.383 -3.078,-3.074"
             style="fill:#000000;fill-opacity:1;fill-rule:nonzero;stroke:none"
             id="path4784"
             inkscape:connector-curvature="0" /><path
             d="m 332.055,206.758 c 0,-1.703 1.371,-3.074 3.066,-3.074 1.707,0 3.074,1.371 3.074,3.074 0,1.691 -1.367,3.066 -3.066,3.066 -1.703,0 -3.074,-1.375 -3.074,-3.066"
             style="fill:#000000;fill-opacity:1;fill-rule:nonzero;stroke:none"
             id="path4786"
             inkscape:connector-curvature="0" /><path
             d="m 360.59,206.758 c 0,-1.703 1.379,-3.074 3.07,-3.074 1.707,0 3.074,1.371 3.074,3.074 0,1.691 -1.367,3.066 -3.074,3.066 -1.691,0 -3.07,-1.375 -3.07,-3.066"
             style="fill:#000000;fill-opacity:1;fill-rule:nonzero;stroke:none"
             id="path4788"
             inkscape:connector-curvature="0" /><path
             d="m 373.691,292.672 c 0,1.695 1.375,3.07 3.071,3.07 1.699,0 3.07,-1.375 3.07,-3.07 0,-1.695 -1.371,-3.074 -3.07,-3.074 -1.696,0 -3.071,1.379 -3.071,3.074"
             style="fill:#000000;fill-opacity:1;fill-rule:nonzero;stroke:none"
             id="path4790"
             inkscape:connector-curvature="0" /><path
             d="m 392.074,315.426 c -1.773,-1.774 -1.773,-4.649 0,-6.426 1.774,-1.773 4.645,-1.773 6.422,0 1.77,1.777 1.77,4.652 0,6.426 -1.777,1.773 -4.648,1.773 -6.422,0"
             style="fill:#000000;fill-opacity:1;fill-rule:nonzero;stroke:none"
             id="path4792"
             inkscape:connector-curvature="0" /><path
             d="m 299.789,309.016 c 1.774,-1.774 4.652,-1.782 6.426,-0.008 1.777,1.781 1.777,4.66 0,6.426 -1.774,1.781 -4.652,1.773 -6.426,0 -1.769,-1.778 -1.769,-4.645 0,-6.418"
             style="fill:#000000;fill-opacity:1;fill-rule:nonzero;stroke:none"
             id="path4794"
             inkscape:connector-curvature="0" /><g
             id="g4796"><path
               d="m 342.141,270.719 c 0,-3.981 -3.235,-7.207 -7.207,-7.207 -3.985,0 -7.211,3.226 -7.211,7.207"
               style="fill:none;stroke:#000000;stroke-width:5.39769077;stroke-linecap:butt;stroke-linejoin:miter;stroke-miterlimit:4;stroke-dasharray:none;stroke-opacity:1"
               id="path4798"
               inkscape:connector-curvature="0" /></g><g
             id="g4800"><path
               d="m 356.551,273.805 c 0,-3.981 -3.223,-7.207 -7.207,-7.207 -3.977,0 -7.203,3.226 -7.203,7.207"
               style="fill:none;stroke:#000000;stroke-width:5.39769077;stroke-linecap:butt;stroke-linejoin:miter;stroke-miterlimit:4;stroke-dasharray:none;stroke-opacity:1"
               id="path4802"
               inkscape:connector-curvature="0" /></g><g
             id="g4804"><path
               d="m 342.141,259.391 c 0,3.976 3.226,7.207 7.203,7.207 3.984,0 7.207,-3.231 7.207,-7.207"
               style="fill:none;stroke:#000000;stroke-width:5.39769077;stroke-linecap:butt;stroke-linejoin:miter;stroke-miterlimit:4;stroke-dasharray:none;stroke-opacity:1"
               id="path4806"
               inkscape:connector-curvature="0" /></g><g
             id="g4808"><path
               d="m 370.969,270.719 c 0,-3.981 -3.227,-7.207 -7.207,-7.207 -3.981,0 -7.211,3.226 -7.211,7.207"
               style="fill:none;stroke:#000000;stroke-width:5.39771986;stroke-linecap:butt;stroke-linejoin:miter;stroke-miterlimit:4;stroke-dasharray:none;stroke-opacity:1"
               id="path4810"
               inkscape:connector-curvature="0" /></g><g
             id="g4812"><path
               d="M 327.723,280.906 V 270.719"
               style="fill:none;stroke:#000000;stroke-width:5.39769077;stroke-linecap:butt;stroke-linejoin:miter;stroke-miterlimit:4;stroke-dasharray:none;stroke-opacity:1"
               id="path4814"
               inkscape:connector-curvature="0" /></g><g
             id="g4816"><path
               d="M 370.969,280.906 V 270.719"
               style="fill:none;stroke:#000000;stroke-width:5.39769077;stroke-linecap:butt;stroke-linejoin:miter;stroke-miterlimit:4;stroke-dasharray:none;stroke-opacity:1"
               id="path4818"
               inkscape:connector-curvature="0" /></g><g
             id="g4820"><path
               d="M 342.141,280.906 V 258.035"
               style="fill:none;stroke:#000000;stroke-width:5.39769077;stroke-linecap:butt;stroke-linejoin:miter;stroke-miterlimit:4;stroke-dasharray:none;stroke-opacity:1"
               id="path4822"
               inkscape:connector-curvature="0" /></g><g
             id="g4824"><path
               d="M 356.551,280.906 V 259.391"
               style="fill:none;stroke:#000000;stroke-width:5.39769077;stroke-linecap:butt;stroke-linejoin:miter;stroke-miterlimit:4;stroke-dasharray:none;stroke-opacity:1"
               id="path4826"
               inkscape:connector-curvature="0" /></g><g
             id="g4828"><path
               d="M 342.141,250.742 V 242.09"
               style="fill:none;stroke:#000000;stroke-width:5.39769077;stroke-linecap:butt;stroke-linejoin:miter;stroke-miterlimit:4;stroke-dasharray:none;stroke-opacity:1"
               id="path4830"
               inkscape:connector-curvature="0" /></g><g
             id="g4832"><path
               d="M 356.551,250.742 V 242.09"
               style="fill:none;stroke:#000000;stroke-width:5.39769077;stroke-linecap:butt;stroke-linejoin:miter;stroke-miterlimit:4;stroke-dasharray:none;stroke-opacity:1"
               id="path4834"
               inkscape:connector-curvature="0" /></g><g
             id="g4836"><path
               d="m 342.141,259.391 v -8.649"
               style="fill:none;stroke:#000000;stroke-width:5.39769077;stroke-linecap:butt;stroke-linejoin:miter;stroke-miterlimit:4;stroke-dasharray:none;stroke-opacity:1"
               id="path4838"
               inkscape:connector-curvature="0" /></g><g
             id="g4840"><path
               d="m 356.551,259.391 v -8.649"
               style="fill:none;stroke:#000000;stroke-width:5.39769077;stroke-linecap:butt;stroke-linejoin:miter;stroke-miterlimit:4;stroke-dasharray:none;stroke-opacity:1"
               id="path4842"
               inkscape:connector-curvature="0" /></g><path
             d="m 348.77,188.629 c 21.195,0 38.371,34.668 38.371,77.437 0,42.774 -17.176,77.438 -38.371,77.438 -21.188,0 -38.372,-34.664 -38.372,-77.438 0,-42.769 17.184,-77.437 38.372,-77.437 m -0.02,163.672 c 23.992,0 43.449,-37.817 43.449,-86.235 0,-48.421 -19.457,-85.125 -43.449,-85.125 -23.988,0 -43.426,36.704 -43.426,85.125 0,48.418 19.438,86.235 43.426,86.235"
             style="fill:#000000;fill-opacity:1;fill-rule:nonzero;stroke:none"
             id="path4844"
             inkscape:connector-curvature="0" /><path
             d="m 267.832,265.25 c 0,-21.602 36.242,-39.105 80.938,-39.105 44.699,0 80.941,17.503 80.941,39.105 0,21.598 -36.242,39.113 -80.941,39.113 -44.696,0 -80.938,-17.515 -80.938,-39.113 m 169.984,0 c 0,-24.449 -38.437,-44.273 -89.046,-44.273 -50.602,0.003 -89.075,19.824 -89.075,44.273 0,24.449 38.473,44.281 89.075,44.281 50.609,0 89.046,-19.832 89.046,-44.281"
             style="fill:#000000;fill-opacity:1;fill-rule:nonzero;stroke:none"
             id="path4846"
             inkscape:connector-curvature="0" /><path
             d="m 348.758,347.102 c -44.699,0 -80.93,-37.434 -80.93,-80.481 0,-43.039 36.231,-80.476 80.93,-80.476 44.691,0 80.926,37.437 80.926,80.476 0,43.047 -36.235,80.481 -80.926,80.481 m 0,-166.157 c -50.594,0 -89.067,36.957 -89.067,85.676 0,48.727 38.473,85.68 89.067,85.68 50.59,0 89.066,-36.953 89.066,-85.68 0,-48.719 -38.476,-85.676 -89.066,-85.676"
             style="fill:#000000;fill-opacity:1;fill-rule:nonzero;stroke:none"
             id="path4848"
             inkscape:connector-curvature="0" /></g></g></g></g></svg>